<?xml version="1.0" standalone="no"?>
<!DOCTYPE svg PUBLIC "-//W3C//DTD SVG 20010904//EN"
 "http://www.w3.org/TR/2001/REC-SVG-20010904/DTD/svg10.dtd">
<svg version="1.0" xmlns="http://www.w3.org/2000/svg"
 width="500.000000pt" height="500.000000pt" viewBox="0 0 500.000000 500.000000"
 preserveAspectRatio="xMidYMid meet">
<metadata>
Created by potrace 1.11, written by Peter Selinger 2001-2013
</metadata>
<g transform="translate(0.000000,500.000000) scale(0.100000,-0.100000)"
fill="#000000" stroke="none">
<path d="M0 2500 l0 -2500 2500 0 2500 0 0 2500 0 2500 -2500 0 -2500 0 0
-2500z m2482 2016 c4 -6 8 -32 8 -57 l0 -46 -182 -53 c-118 -35 -190 -62 -204
-75 -19 -19 -21 -36 -27 -235 -9 -276 -9 -2594 0 -2897 l6 -233 671 0 671 0
174 363 c96 199 176 363 176 365 4 5 117 23 122 18 6 -5 -44 -866 -55 -945
l-7 -54 -1355 2 c-745 1 -1356 3 -1357 5 -1 1 -5 27 -9 57 l-6 54 183 55 c120
35 191 62 205 76 18 18 23 37 29 125 3 57 5 803 3 1656 l-3 1553 -26 25 c-19
19 -75 42 -205 84 l-179 57 -3 55 -3 55 683 0 c471 0 685 -3 690 -10z"/>
</g>
</svg>
